<svg width="87" height="83" viewBox="0 0 87 83" fill="none" xmlns="http://www.w3.org/2000/svg">
<path d="M35.0921 36.3323L36.5556 42.2175L13.5815 47.9308L12.118 42.0456L35.0921 36.3323ZM29.4864 14.4425L17.3742 46.9877L11.8378 48.3645L10.835 44.332L23.1922 11.8416L28.5107 10.519L29.4864 14.4425ZM26.0476 11.1315L27.5166 17.0385L5.30539 22.5621L3.83641 16.6551L26.0476 11.1315Z" fill="#6C757D"/>
<path d="M62.9385 57.5176V62H45.4404V57.5176H62.9385ZM62.8223 40.8164L48.3291 62H44.1123V58.9287L58.7715 37.8281H62.8223V40.8164ZM60.9463 37.8281V42.3271H44.0293V37.8281H60.9463Z" fill="#6C757D"/>
<path d="M80.9757 73.4723L80.2054 76.8123L67.1668 73.8056L67.937 70.4655L80.9757 73.4723ZM83.7589 61.0074L69.3193 74.302L66.1771 73.5774L66.7049 71.2888L81.2539 58.0846L84.2724 58.7807L83.7589 61.0074ZM82.8745 58.4583L82.1014 61.8108L69.4957 58.9039L70.2688 55.5514L82.8745 58.4583Z" fill="#6C757D"/>
</svg>
